<svg width="16" height="16" viewBox="0 0 16 16" fill="none" xmlns="http://www.w3.org/2000/svg">
<g clip-path="url(#clip0_288_471)">
<g clip-path="url(#clip1_288_471)">
<path d="M8 0.25C3.71875 0.25 0.25 3.71875 0.25 8C0.25 12.2812 3.71875 15.75 8 15.75C12.2812 15.75 15.75 12.2812 15.75 8C15.75 3.71875 12.2812 0.25 8 0.25ZM11.8 10.0344C11.9469 10.1813 11.9469 10.4187 11.8 10.5656L10.5625 11.8C10.4156 11.9469 10.1781 11.9469 10.0312 11.8L8 9.75L5.96562 11.8C5.81875 11.9469 5.58125 11.9469 5.43437 11.8L4.2 10.5625C4.05312 10.4156 4.05312 10.1781 4.2 10.0312L6.25 8L4.2 5.96562C4.05312 5.81875 4.05312 5.58125 4.2 5.43437L5.4375 4.19688C5.58437 4.05 5.82188 4.05 5.96875 4.19688L8 6.25L10.0344 4.2C10.1813 4.05312 10.4187 4.05312 10.5656 4.2L11.8031 5.4375C11.95 5.58437 11.95 5.82188 11.8031 5.96875L9.75 8L11.8 10.0344Z" fill="black"/>
</g>
</g>
<defs>
<clipPath id="clip0_288_471">
<rect width="16" height="16" fill="white"/>
</clipPath>
<clipPath id="clip1_288_471">
<rect width="16" height="16" fill="white"/>
</clipPath>
</defs>
</svg>
