<svg width="12" height="12" viewBox="0 0 12 12" fill="none" xmlns="http://www.w3.org/2000/svg">
<g clip-path="url(#clip0_164_678)">
<g clip-path="url(#clip1_164_678)">
<path d="M9.99999 4.50001H7.61894L5.42934 0.667917C5.40015 0.616898 5.35799 0.574498 5.30714 0.545011C5.25628 0.515524 5.19854 0.499996 5.13976 0.5H3.77517C3.55371 0.5 3.39392 0.711876 3.45475 0.924793L4.47622 4.50001H2.33329L1.43328 3.30001C1.37037 3.21605 1.27141 3.16668 1.16662 3.16668H0.333488C0.116612 3.16668 -0.0425554 3.37043 0.0101531 3.58084L0.666614 5.83335L0.0101531 8.08586C-0.0425554 8.29628 0.116612 8.50003 0.333488 8.50003H1.16662C1.27162 8.50003 1.37037 8.45065 1.43328 8.36669L2.33329 7.16669H4.47622L3.45475 10.7417C3.39392 10.9546 3.55371 11.1667 3.77517 11.1667H5.13976C5.25934 11.1667 5.36976 11.1025 5.42914 10.9988L7.61894 7.16669H9.99999C10.7365 7.16669 12 6.56981 12 5.83335C12 5.09689 10.7365 4.50001 9.99999 4.50001Z" fill="white"/>
</g>
</g>
<defs>
<clipPath id="clip0_164_678">
<rect width="12" height="12" fill="white"/>
</clipPath>
<clipPath id="clip1_164_678">
<rect width="12" height="12" fill="white"/>
</clipPath>
</defs>
</svg>
