<svg width="12" height="12" viewBox="0 0 12 12" fill="none" xmlns="http://www.w3.org/2000/svg">
<g clip-path="url(#clip0_164_1538)">
<path d="M8.62266 7.72875C8.51437 7.85297 8.39344 7.96547 8.25 8.04867V8.58633C9.80906 8.80523 10.875 9.24375 10.875 9.75C10.875 10.4749 8.6925 11.0625 6 11.0625C3.3075 11.0625 1.125 10.4749 1.125 9.75C1.125 9.24375 2.19094 8.80547 3.75 8.58633V8.04867C3.60656 7.96547 3.48563 7.85297 3.37734 7.72875C1.37977 8.09391 0 8.86055 0 9.75C0 10.9927 2.68641 12 6 12C9.31359 12 12 10.9927 12 9.75C12 8.86055 10.6202 8.09391 8.62266 7.72875ZM6 3C6.82852 3 7.5 2.32852 7.5 1.5C7.5 0.671484 6.82852 0 6 0C5.17148 0 4.5 0.671484 4.5 1.5C4.5 2.32852 5.17148 3 6 3ZM4.5 7.5V9.75C4.5 10.1641 4.83586 10.5 5.25 10.5H6.75C7.16414 10.5 7.5 10.1641 7.5 9.75V7.5C7.91414 7.5 8.25 7.16414 8.25 6.75V4.5C8.25 3.87867 7.74633 3.375 7.125 3.375H6.84844C6.58898 3.49289 6.30328 3.5625 6 3.5625C5.69672 3.5625 5.41102 3.49289 5.15156 3.375H4.875C4.25367 3.375 3.75 3.87867 3.75 4.5V6.75C3.75 7.16414 4.08586 7.5 4.5 7.5Z" fill="white"/>
</g>
<defs>
<clipPath id="clip0_164_1538">
<rect width="12" height="12" fill="white"/>
</clipPath>
</defs>
</svg>
