<svg width="24" height="24" viewBox="0 0 24 24" fill="none" xmlns="http://www.w3.org/2000/svg">
<g clip-path="url(#clip0_226_4282)">
<g clip-path="url(#clip1_226_4282)">
<path d="M23.6719 20.7516L18.9984 16.0781C18.7875 15.8672 18.5016 15.75 18.2016 15.75H17.4375C18.7313 14.0953 19.5 12.0141 19.5 9.75C19.5 4.36406 15.1359 0 9.75 0C4.36406 0 0 4.36406 0 9.75C0 15.1359 4.36406 19.5 9.75 19.5C12.0141 19.5 14.0953 18.7313 15.75 17.4375V18.2016C15.75 18.5016 15.8672 18.7875 16.0781 18.9984L20.7516 23.6719C21.1922 24.1125 21.9047 24.1125 22.3406 23.6719L23.6672 22.3453C24.1078 21.9047 24.1078 21.1922 23.6719 20.7516ZM9.75 15.75C6.43594 15.75 3.75 13.0688 3.75 9.75C3.75 6.43594 6.43125 3.75 9.75 3.75C13.0641 3.75 15.75 6.43125 15.75 9.75C15.75 13.0641 13.0688 15.75 9.75 15.75Z" fill="url(#paint0_linear_226_4282)"/>
</g>
</g>
<defs>
<linearGradient id="paint0_linear_226_4282" x1="0" y1="12.0012" x2="23.9982" y2="12.0012" gradientUnits="userSpaceOnUse">
<stop stop-color="#75FEA3"/>
<stop offset="0.0625" stop-color="#76FEA4"/>
<stop offset="0.125" stop-color="#78FEA6"/>
<stop offset="0.1875" stop-color="#7BFEAB"/>
<stop offset="0.25" stop-color="#80FEB0"/>
<stop offset="0.3125" stop-color="#85FEB7"/>
<stop offset="0.375" stop-color="#8BFEBF"/>
<stop offset="0.4375" stop-color="#92FEC7"/>
<stop offset="0.5" stop-color="#99FFD0"/>
<stop offset="0.5625" stop-color="#A0FFD9"/>
<stop offset="0.625" stop-color="#A7FFE1"/>
<stop offset="0.6875" stop-color="#ADFFE9"/>
<stop offset="0.75" stop-color="#B2FFF0"/>
<stop offset="0.8125" stop-color="#B7FFF5"/>
<stop offset="0.875" stop-color="#BAFFFA"/>
<stop offset="0.9375" stop-color="#BCFFFC"/>
<stop offset="1" stop-color="#BDFFFD"/>
</linearGradient>
<clipPath id="clip0_226_4282">
<rect width="24" height="24" fill="white"/>
</clipPath>
<clipPath id="clip1_226_4282">
<rect width="24" height="24" fill="white"/>
</clipPath>
</defs>
</svg>
