<svg xmlns="http://www.w3.org/2000/svg" width="23" height="24" viewBox="0 0 23 24" fill="none">
  <g clip-path="url(#clip0_3226_13539)">
    <path d="M22.1471 15.4248L20.6328 14.4482V15.5635L22.1471 15.9763V15.4248Z" fill="#A50E0E"/>
    <path d="M-0.0078125 15.4268L1.50655 14.4502V15.5655L-0.0078125 15.9783V15.4268Z" fill="#A50E0E"/>
    <path d="M1.50391 6V18L11.0665 24L20.6291 18V6L11.0665 0L1.50391 6Z" fill="#ECB20C"/>
    <path d="M7.59461 9.92844L11.0665 2.5878V0L1.50391 6L7.59461 9.92844Z" fill="url(#paint0_linear_3226_13539)"/>
    <path d="M15.5943 14.4482L11.0703 21.4093V23.9971L20.6329 17.9971L18.5706 16.7032L15.5943 14.4482Z" fill="url(#paint1_linear_3226_13539)"/>
    <path d="M10.9012 18.339L3.56608 16.7061L1.50391 18L11.0665 24V21.4122L10.9012 18.339Z" fill="url(#paint2_linear_3226_13539)"/>
    <path d="M11.2337 5.7702L18.5706 7.29396L20.6329 6L11.0703 0V2.5878L11.2337 5.7702Z" fill="url(#paint3_linear_3226_13539)"/>
    <path d="M7.92518 14.1337L3.87567 7.50528L1.50391 6V18L3.56608 16.706L7.92518 14.1337Z" fill="url(#paint4_linear_3226_13539)"/>
    <path d="M14.2109 14.1337L18.2605 7.50528L20.6323 6V18L18.57 16.706L14.2109 14.1337Z" fill="url(#paint5_linear_3226_13539)"/>
    <path d="M3.57031 7.29503V16.7071L11.0708 21.4133L18.5711 16.7071V7.29503L11.0708 2.58887L3.57031 7.29503Z" fill="url(#paint6_linear_3226_13539)"/>
    <path d="M7.16586 18.664H0.944769C0.418678 18.664 -0.0078125 18.2467 -0.0078125 17.732V15.3613H6.13613C6.70478 15.3613 7.16586 15.8123 7.16586 16.3687V18.664Z" fill="url(#paint7_linear_3226_13539)"/>
    <path d="M21.1977 18.869H14.9766V16.5738C14.9766 16.0175 15.4375 15.5664 16.0063 15.5664H22.1502V17.9371C22.1502 18.4518 21.7238 18.869 21.1977 18.869Z" fill="url(#paint8_linear_3226_13539)"/>
    <path d="M16.8837 20.5205H5.25982C4.97389 20.5205 4.74219 20.2937 4.74219 20.0141V16.4859C4.74219 16.2062 4.97402 15.9795 5.25982 15.9795H16.8839C17.1698 15.9795 17.4015 16.2063 17.4015 16.4859V20.0141C17.4015 20.2939 17.1697 20.5205 16.8837 20.5205Z" fill="url(#paint9_linear_3226_13539)"/>
    <path d="M11.0712 21.5535C12.9356 21.5535 14.447 20.0749 14.447 18.2509C14.447 16.4269 12.9356 14.9482 11.0712 14.9482C9.20674 14.9482 7.69531 16.4269 7.69531 18.2509C7.69531 20.0749 9.20674 21.5535 11.0712 21.5535Z" fill="#F6F6F8"/>
    <path d="M11.0803 20.9276C12.5917 20.9276 13.8169 19.729 13.8169 18.2504C13.8169 16.7719 12.5917 15.5732 11.0803 15.5732C9.56895 15.5732 8.34375 16.7719 8.34375 18.2504C8.34375 19.729 9.56895 20.9276 11.0803 20.9276Z" fill="url(#paint10_linear_3226_13539)"/>
    <path d="M11.0672 16.251L11.7313 17.5675L13.2165 17.7786L12.1419 18.8034L12.3955 20.2503L11.0672 19.5672L9.73881 20.2503L9.9926 18.8034L8.91797 17.7786L10.403 17.5675L11.0672 16.251Z" fill="#57E0EA"/>
    <path d="M11.0672 16.251L11.1536 18.2083L11.7313 17.5675L12.4739 17.673L13.2165 17.7786L11.1536 18.2083L12.1419 18.8034L12.2687 19.5269L12.3955 20.2503L11.1536 18.2083L11.0672 19.5672L10.403 19.9088L9.73881 20.2503L11.1536 18.2083L9.9926 18.8034L9.45522 18.291L8.91797 17.7786L11.1536 18.2083L10.403 17.5675L10.7351 16.9092L11.0672 16.251Z" fill="#5483F7"/>
    <path d="M5.63026 7.32624L5.81119 6.61812C5.83437 6.52728 5.88245 6.44424 5.95016 6.378C6.01787 6.31176 6.10275 6.26472 6.19561 6.24204L6.91943 6.06504C6.93893 6.06024 6.93893 6.03312 6.91943 6.02844L6.19561 5.85144C6.10275 5.82876 6.01787 5.78172 5.95016 5.71548C5.88245 5.64924 5.83437 5.5662 5.81119 5.47536L5.63026 4.76724C5.62536 4.74816 5.59764 4.74816 5.59285 4.76724L5.41193 5.47536C5.38874 5.5662 5.34066 5.64924 5.27295 5.71548C5.20524 5.78172 5.12036 5.82876 5.02751 5.85144L4.30369 6.02844C4.28419 6.03324 4.28419 6.06036 4.30369 6.06504L5.02751 6.24204C5.12036 6.26472 5.20524 6.31176 5.27295 6.378C5.34066 6.44424 5.38874 6.52728 5.41193 6.61812L5.59285 7.32624C5.59776 7.34532 5.62548 7.34532 5.63026 7.32624Z" fill="white"/>
    <path d="M18.5138 15.0934L18.6494 14.5623C18.6669 14.4942 18.7029 14.4319 18.7537 14.3822C18.8045 14.3325 18.8681 14.2972 18.9378 14.2802L19.4807 14.1474C19.4953 14.1438 19.4953 14.1235 19.4807 14.1199L18.9378 13.987C18.8681 13.97 18.8045 13.9347 18.7537 13.885C18.7029 13.8354 18.6669 13.7731 18.6494 13.7049L18.5138 13.1738C18.5101 13.1595 18.4894 13.1595 18.4857 13.1738L18.35 13.7049C18.3326 13.7731 18.2966 13.8354 18.2458 13.885C18.195 13.9347 18.1313 13.97 18.0617 13.987L17.5188 14.1199C17.5042 14.1235 17.5042 14.1438 17.5188 14.1474L18.0617 14.2802C18.1313 14.2972 18.195 14.3325 18.2458 14.3822C18.2966 14.4319 18.3326 14.4942 18.35 14.5623L18.4857 15.0934C18.4894 15.1077 18.5101 15.1077 18.5138 15.0934Z" fill="white"/>
    <path d="M8.82607 12.6874C10.4717 11.2247 11.5777 10.0561 11.5777 9.12067C11.5777 8.53207 11.242 8.21203 10.7196 8.21203C10.2686 8.21203 9.91407 8.50603 9.60496 8.83519L8.74609 8.00407C9.39239 7.33723 9.99404 7.00879 10.9322 7.00879C12.206 7.00879 13.0909 7.80535 13.0909 9.03463C13.0909 10.1427 12.1174 11.3629 11.1087 12.3589C11.4365 12.3152 11.8876 12.2721 12.1794 12.2721H13.392V13.5705H8.82607V12.6874Z" fill="#5271E5"/>
  </g>
  <defs>
    <linearGradient id="paint0_linear_3226_13539" x1="6.31541" y1="3.03658" x2="7.70339" y2="4.78959" gradientUnits="userSpaceOnUse">
      <stop stop-color="#98EEFF"/>
      <stop offset="1" stop-color="#5EA9D3"/>
    </linearGradient>
    <linearGradient id="paint1_linear_3226_13539" x1="15.5574" y1="20.5824" x2="14.5592" y2="19.0156" gradientUnits="userSpaceOnUse">
      <stop stop-color="#98EEFF"/>
      <stop offset="1" stop-color="#5EA9D3"/>
    </linearGradient>
    <linearGradient id="paint2_linear_3226_13539" x1="6.15559" y1="21.1337" x2="7.83111" y2="19.3272" gradientUnits="userSpaceOnUse">
      <stop stop-color="#4F7EEF"/>
      <stop offset="1" stop-color="#5C9AFA"/>
    </linearGradient>
    <linearGradient id="paint3_linear_3226_13539" x1="15.944" y1="2.90796" x2="14.2686" y2="4.73612" gradientUnits="userSpaceOnUse">
      <stop stop-color="#4F7EEF"/>
      <stop offset="1" stop-color="#5C9AFA"/>
    </linearGradient>
    <linearGradient id="paint4_linear_3226_13539" x1="1.50386" y1="12" x2="3.86615" y2="12" gradientUnits="userSpaceOnUse">
      <stop stop-color="#376CD2"/>
      <stop offset="1" stop-color="#4D8CE0"/>
    </linearGradient>
    <linearGradient id="paint5_linear_3226_13539" x1="20.6323" y1="12" x2="18.27" y2="12" gradientUnits="userSpaceOnUse">
      <stop stop-color="#376CD2"/>
      <stop offset="1" stop-color="#4D8CE0"/>
    </linearGradient>
    <linearGradient id="paint6_linear_3226_13539" x1="11.0707" y1="21.4132" x2="11.0707" y2="2.5889" gradientUnits="userSpaceOnUse">
      <stop stop-color="#80BDE4"/>
      <stop offset="1" stop-color="#C5EAFA"/>
    </linearGradient>
    <linearGradient id="paint7_linear_3226_13539" x1="-0.0078125" y1="17.0127" x2="7.16582" y2="17.0127" gradientUnits="userSpaceOnUse">
      <stop stop-color="#BE4244"/>
      <stop offset="1" stop-color="#D33730"/>
    </linearGradient>
    <linearGradient id="paint8_linear_3226_13539" x1="14.9766" y1="17.2178" x2="22.1503" y2="17.2178" gradientUnits="userSpaceOnUse">
      <stop stop-color="#BE4244"/>
      <stop offset="1" stop-color="#D33730"/>
    </linearGradient>
    <linearGradient id="paint9_linear_3226_13539" x1="11.0718" y1="20.5205" x2="11.0718" y2="15.9795" gradientUnits="userSpaceOnUse">
      <stop stop-color="#FF544A"/>
      <stop offset="1" stop-color="#F7726E"/>
    </linearGradient>
    <linearGradient id="paint10_linear_3226_13539" x1="11.0803" y1="20.9276" x2="11.0803" y2="15.5732" gradientUnits="userSpaceOnUse">
      <stop stop-color="#80BDE4"/>
      <stop offset="1" stop-color="#C5EAFA"/>
    </linearGradient>
    <clipPath id="clip0_3226_13539">
      <rect width="22.1538" height="24" fill="white"/>
    </clipPath>
  </defs>
</svg>