<svg xmlns="http://www.w3.org/2000/svg" width="23" height="24" viewBox="0 0 23 24" fill="none">
  <g clip-path="url(#clip0_3226_13441)">
    <path d="M22.151 15.4248L20.6367 14.4482V15.5635L22.151 15.9763V15.4248Z" fill="#A50E0E"/>
    <path d="M0 15.4268L1.51437 14.4502V15.5655L0 15.9783V15.4268Z" fill="#A50E0E"/>
    <path d="M1.51172 6V18L11.0743 24L20.637 18V6L11.0743 0L1.51172 6Z" fill="#ECB20C"/>
    <path d="M7.60243 9.92844L11.0743 2.5878V0L1.51172 6L7.60243 9.92844Z" fill="url(#paint0_linear_3226_13441)"/>
    <path d="M15.6021 14.4482L11.0781 21.4093V23.9971L20.6407 17.9971L18.5784 16.7032L15.6021 14.4482Z" fill="url(#paint1_linear_3226_13441)"/>
    <path d="M10.909 18.339L3.57389 16.7061L1.51172 18L11.0743 24V21.4122L10.909 18.339Z" fill="url(#paint2_linear_3226_13441)"/>
    <path d="M11.2415 5.7702L18.5784 7.29396L20.6407 6L11.0781 0V2.5878L11.2415 5.7702Z" fill="url(#paint3_linear_3226_13441)"/>
    <path d="M7.933 14.1337L3.88348 7.50528L1.51172 6V18L3.57389 16.706L7.933 14.1337Z" fill="url(#paint4_linear_3226_13441)"/>
    <path d="M14.2188 14.1337L18.2683 7.50528L20.6402 6V18L18.5779 16.706L14.2188 14.1337Z" fill="url(#paint5_linear_3226_13441)"/>
    <path d="M3.57812 7.29503V16.7071L11.0786 21.4133L18.5789 16.7071V7.29503L11.0786 2.58887L3.57812 7.29503Z" fill="url(#paint6_linear_3226_13441)"/>
    <path d="M7.17368 18.664H0.952582C0.426491 18.664 0 18.2467 0 17.732V15.3613H6.14394C6.7126 15.3613 7.17368 15.8123 7.17368 16.3687V18.664Z" fill="url(#paint7_linear_3226_13441)"/>
    <path d="M21.2055 18.869H14.9844V16.5738C14.9844 16.0175 15.4453 15.5664 16.0141 15.5664H22.1581V17.9371C22.1581 18.4518 21.7316 18.869 21.2055 18.869Z" fill="url(#paint8_linear_3226_13441)"/>
    <path d="M16.8916 20.5205H5.26763C4.98171 20.5205 4.75 20.2937 4.75 20.0141V16.4859C4.75 16.2062 4.98183 15.9795 5.26763 15.9795H16.8917C17.1776 15.9795 17.4093 16.2063 17.4093 16.4859V20.0141C17.4093 20.2939 17.1775 20.5205 16.8916 20.5205Z" fill="url(#paint9_linear_3226_13441)"/>
    <path d="M11.079 21.5535C12.9434 21.5535 14.4549 20.0749 14.4549 18.2509C14.4549 16.4269 12.9434 14.9482 11.079 14.9482C9.21455 14.9482 7.70312 16.4269 7.70312 18.2509C7.70312 20.0749 9.21455 21.5535 11.079 21.5535Z" fill="#F6F6F8"/>
    <path d="M11.0842 20.9276C12.5956 20.9276 13.8208 19.729 13.8208 18.2504C13.8208 16.7719 12.5956 15.5732 11.0842 15.5732C9.57285 15.5732 8.34766 16.7719 8.34766 18.2504C8.34766 19.729 9.57285 20.9276 11.0842 20.9276Z" fill="url(#paint10_linear_3226_13441)"/>
    <path d="M11.075 16.251L11.7391 17.5675L13.2243 17.7786L12.1497 18.8034L12.4033 20.2503L11.075 19.5672L9.74663 20.2503L10.0004 18.8034L8.92578 17.7786L10.4108 17.5675L11.075 16.251Z" fill="#FFB05A"/>
    <path d="M11.075 16.251L11.1614 18.2083L11.7391 17.5675L12.4817 17.673L13.2243 17.7786L11.1614 18.2083L12.1497 18.8034L12.2765 19.5269L12.4033 20.2503L11.1614 18.2083L11.075 19.5672L10.4108 19.9088L9.74663 20.2503L11.1614 18.2083L10.0004 18.8034L9.46303 18.291L8.92578 17.7786L11.1614 18.2083L10.4108 17.5675L10.7429 16.9092L11.075 16.251Z" fill="#D17A21"/>
    <path d="M5.63808 7.32624L5.819 6.61812C5.84218 6.52728 5.89027 6.44424 5.95797 6.378C6.02568 6.31176 6.11056 6.26472 6.20342 6.24204L6.92724 6.06504C6.94674 6.06024 6.94674 6.03312 6.92724 6.02844L6.20342 5.85144C6.11056 5.82876 6.02568 5.78172 5.95797 5.71548C5.89027 5.64924 5.84218 5.5662 5.819 5.47536L5.63808 4.76724C5.63317 4.74816 5.60545 4.74816 5.60066 4.76724L5.41974 5.47536C5.39656 5.5662 5.34847 5.64924 5.28077 5.71548C5.21306 5.78172 5.12818 5.82876 5.03532 5.85144L4.3115 6.02844C4.292 6.03324 4.292 6.06036 4.3115 6.06504L5.03532 6.24204C5.12818 6.26472 5.21306 6.31176 5.28077 6.378C5.34847 6.44424 5.39656 6.52728 5.41974 6.61812L5.60066 7.32624C5.60557 7.34532 5.63329 7.34532 5.63808 7.32624Z" fill="white"/>
    <path d="M18.5255 15.0934L18.6612 14.5623C18.6786 14.4942 18.7146 14.4319 18.7654 14.3822C18.8162 14.3325 18.8799 14.2972 18.9495 14.2802L19.4924 14.1474C19.507 14.1438 19.507 14.1235 19.4924 14.1199L18.9495 13.987C18.8799 13.97 18.8162 13.9347 18.7654 13.885C18.7146 13.8354 18.6786 13.7731 18.6612 13.7049L18.5255 13.1738C18.5218 13.1595 18.5011 13.1595 18.4974 13.1738L18.3617 13.7049C18.3443 13.7731 18.3083 13.8354 18.2575 13.885C18.2067 13.9347 18.143 13.97 18.0734 13.987L17.5305 14.1199C17.5159 14.1235 17.5159 14.1438 17.5305 14.1474L18.0734 14.2802C18.143 14.2972 18.2067 14.3325 18.2575 14.3822C18.3083 14.4319 18.3443 14.4942 18.3617 14.5623L18.4974 15.0934C18.5011 15.1077 18.5218 15.1077 18.5255 15.0934Z" fill="white"/>
    <path d="M8.77344 12.6878L9.48585 11.7355C9.8764 12.1009 10.3284 12.3474 10.8322 12.3474C11.4321 12.3474 11.8227 12.101 11.8227 11.6254C11.8227 11.0815 11.5277 10.7582 10.1721 10.7582V9.69585C11.2757 9.69585 11.6231 9.36429 11.6231 8.86257C11.6231 8.42937 11.3628 8.19117 10.8845 8.19117C10.4502 8.19117 10.1198 8.38629 9.72933 8.71785L8.94688 7.79181C9.54681 7.29837 10.1899 7.00977 10.9539 7.00977C12.2923 7.00977 13.1696 7.62165 13.1696 8.75181C13.1696 9.38096 12.8222 9.87441 12.1269 10.1464V10.1887C12.8485 10.4012 13.3784 10.9112 13.3784 11.7272C13.3784 12.9086 12.2748 13.5716 10.9886 13.5716C9.96337 13.5716 9.24249 13.2228 8.77344 12.6878Z" fill="#D56E1F"/>
  </g>
  <defs>
    <linearGradient id="paint0_linear_3226_13441" x1="6.28289" y1="2.98783" x2="7.61892" y2="4.67427" gradientUnits="userSpaceOnUse">
      <stop stop-color="#EFEDB3"/>
      <stop offset="1" stop-color="#F8AB30"/>
    </linearGradient>
    <linearGradient id="paint1_linear_3226_13441" x1="15.7088" y1="20.7945" x2="14.7107" y2="19.2276" gradientUnits="userSpaceOnUse">
      <stop stop-color="#F8AB30"/>
      <stop offset="1" stop-color="#EFEDB3"/>
    </linearGradient>
    <linearGradient id="paint2_linear_3226_13441" x1="6.10618" y1="21.2363" x2="8.35848" y2="18.2602" gradientUnits="userSpaceOnUse">
      <stop stop-color="#E1783A"/>
      <stop offset="1" stop-color="#EB9130"/>
    </linearGradient>
    <linearGradient id="paint3_linear_3226_13441" x1="15.9529" y1="2.90568" x2="14.2776" y2="4.73384" gradientUnits="userSpaceOnUse">
      <stop stop-color="#E1783A"/>
      <stop offset="1" stop-color="#EB9130"/>
    </linearGradient>
    <linearGradient id="paint4_linear_3226_13441" x1="1.51167" y1="12" x2="3.9103" y2="12" gradientUnits="userSpaceOnUse">
      <stop stop-color="#E46F26"/>
      <stop offset="1" stop-color="#FFA835"/>
    </linearGradient>
    <linearGradient id="paint5_linear_3226_13441" x1="20.6401" y1="12" x2="18.2778" y2="12" gradientUnits="userSpaceOnUse">
      <stop stop-color="#E46F26"/>
      <stop offset="1" stop-color="#FFA835"/>
    </linearGradient>
    <linearGradient id="paint6_linear_3226_13441" x1="11.0785" y1="21.4132" x2="11.0785" y2="2.5889" gradientUnits="userSpaceOnUse">
      <stop stop-color="#ED9448"/>
      <stop offset="1" stop-color="#F5CC75"/>
    </linearGradient>
    <linearGradient id="paint7_linear_3226_13441" x1="0" y1="17.0127" x2="7.17363" y2="17.0127" gradientUnits="userSpaceOnUse">
      <stop stop-color="#BE4244"/>
      <stop offset="1" stop-color="#D33730"/>
    </linearGradient>
    <linearGradient id="paint8_linear_3226_13441" x1="14.9844" y1="17.2178" x2="22.1581" y2="17.2178" gradientUnits="userSpaceOnUse">
      <stop stop-color="#BE4244"/>
      <stop offset="1" stop-color="#D33730"/>
    </linearGradient>
    <linearGradient id="paint9_linear_3226_13441" x1="11.0796" y1="20.5205" x2="11.0796" y2="15.9795" gradientUnits="userSpaceOnUse">
      <stop stop-color="#FF544A"/>
      <stop offset="1" stop-color="#F7726E"/>
    </linearGradient>
    <linearGradient id="paint10_linear_3226_13441" x1="11.0842" y1="20.9276" x2="11.0842" y2="15.5732" gradientUnits="userSpaceOnUse">
      <stop stop-color="#ED9448"/>
      <stop offset="1" stop-color="#F5CC75"/>
    </linearGradient>
    <clipPath id="clip0_3226_13441">
      <rect width="22.1538" height="24" fill="white"/>
    </clipPath>
  </defs>
</svg>