<svg width="209" height="69" viewBox="0 0 209 69" fill="none" xmlns="http://www.w3.org/2000/svg">
<g clip-path="url(#clip0_498_5069)">
<path d="M59 5H0V64H59V5Z" fill="black"/>
<path d="M29.5001 52.2726L25.3701 34.5L29.5001 16.7274L33.6301 34.5L29.5001 52.2726Z" fill="white"/>
<path d="M11.7275 34.5L29.5001 30.37L47.2727 34.5L29.5001 38.63L11.7275 34.5Z" fill="white"/>
<path d="M32.8176 34.5L38.2969 25.7031L29.5 31.1824L20.7031 25.7031L26.1825 34.5L20.7031 43.2969L29.5 37.8175L38.2969 43.2969L32.8176 34.5Z" fill="white"/>
</g>
<path d="M99.212 18.614V24.386H87.72V52.934H80.544V24.386H69V18.614H99.212Z" fill="black"/>
<path d="M100.945 52.934V26.934H107.133L107.601 32.03C108.295 30.2274 109.3 28.8407 110.617 27.87C111.969 26.8994 113.651 26.414 115.661 26.414C116.251 26.414 116.788 26.466 117.273 26.57C117.759 26.674 118.157 26.8127 118.469 26.986L117.637 32.966C117.291 32.8274 116.857 32.7234 116.337 32.654C115.852 32.5847 115.211 32.55 114.413 32.55C113.373 32.55 112.368 32.81 111.397 33.33C110.427 33.8154 109.629 34.578 109.005 35.618C108.381 36.6234 108.069 37.906 108.069 39.466V52.934H100.945Z" fill="black"/>
<path d="M134.439 53.454C131.7 53.454 129.308 52.9167 127.263 51.842C125.252 50.7674 123.692 49.2247 122.583 47.214C121.474 45.2034 120.919 42.7767 120.919 39.934C120.919 37.0914 121.474 34.6647 122.583 32.654C123.692 30.6434 125.235 29.1007 127.211 28.026C129.222 26.9514 131.51 26.414 134.075 26.414C136.71 26.414 138.946 26.9514 140.783 28.026C142.62 29.066 144.024 30.5047 144.995 32.342C145.966 34.1447 146.451 36.2074 146.451 38.53C146.451 39.2234 146.434 39.882 146.399 40.506C146.364 41.13 146.312 41.6847 146.243 42.17H125.495V37.23H143.123L139.691 38.478C139.691 36.294 139.188 34.6127 138.183 33.434C137.212 32.2554 135.826 31.666 134.023 31.666C132.706 31.666 131.562 31.978 130.591 32.602C129.655 33.226 128.944 34.162 128.459 35.41C127.974 36.6234 127.731 38.166 127.731 40.038C127.731 41.8754 127.991 43.4007 128.511 44.614C129.066 45.7927 129.828 46.6767 130.799 47.266C131.804 47.8554 133 48.15 134.387 48.15C135.912 48.15 137.143 47.8554 138.079 47.266C139.015 46.6767 139.743 45.862 140.263 44.822L145.931 47.006C145.376 48.358 144.527 49.5194 143.383 50.49C142.274 51.4607 140.939 52.206 139.379 52.726C137.854 53.2114 136.207 53.454 134.439 53.454Z" fill="black"/>
<path d="M178.956 26.934L166.944 39.466L165.54 40.142L157.74 48.514L157.636 40.922L170.844 26.934H178.956ZM159.612 15.546V52.934H152.488V15.546H159.612ZM167.932 35.202L179.58 52.934H171.52L163.044 39.362L167.932 35.202Z" fill="black"/>
<path d="M183.77 52.934V26.934H190.166L190.582 34.734L189.698 33.902C190.114 32.2034 190.772 30.7994 191.674 29.69C192.575 28.5807 193.667 27.766 194.95 27.246C196.267 26.6914 197.706 26.414 199.266 26.414C201.068 26.414 202.663 26.7607 204.05 27.454C205.471 28.1474 206.58 29.2047 207.378 30.626C208.21 32.0127 208.626 33.7634 208.626 35.878V52.934H201.502V37.906C201.502 35.6874 201.068 34.162 200.202 33.33C199.335 32.4634 198.208 32.03 196.822 32.03C195.851 32.03 194.898 32.2727 193.962 32.758C193.06 33.2087 192.315 33.954 191.726 34.994C191.171 36.034 190.894 37.4207 190.894 39.154V52.934H183.77Z" fill="black"/>
<defs>
<clipPath id="clip0_498_5069">
<rect y="5" width="59" height="59" rx="29.5" fill="white"/>
</clipPath>
</defs>
</svg>
