<svg width="39" height="43" viewBox="0 0 39 43" fill="none" xmlns="http://www.w3.org/2000/svg">
<path d="M17.2293 40.454L17.2301 40.4551C18.2734 41.9623 20.5041 41.9624 21.5475 40.4551L21.5483 40.454C23.4911 37.6374 25.16 35.2599 26.5897 33.2231C29.1891 29.5197 30.998 26.9427 32.2259 24.901C33.1877 23.3017 33.8237 21.9835 34.2139 20.6657C34.606 19.3418 34.7383 18.0579 34.7383 16.5416C34.7383 8.06431 27.8661 1.19213 19.3888 1.19213C10.9115 1.19213 4.0393 8.06431 4.0393 16.5416C4.0393 18.0579 4.17159 19.3418 4.56366 20.6657C4.9539 21.9835 5.58994 23.3017 6.55174 24.901C7.77963 26.9427 9.58849 29.5197 12.1879 33.2231C13.6176 35.2599 15.2865 37.6375 17.2293 40.454ZM24.6399 16.5416C24.6399 19.4418 22.2889 21.7928 19.3888 21.7928C16.4887 21.7928 14.1377 19.4418 14.1377 16.5416C14.1377 13.6415 16.4887 11.2905 19.3888 11.2905C22.2889 11.2905 24.6399 13.6415 24.6399 16.5416Z" fill="url(#paint0_linear_567_4001)" stroke="#395324" stroke-width="1.61574"/>
<defs>
<linearGradient id="paint0_linear_567_4001" x1="19.3888" y1="2" x2="19.3888" y2="40.7777" gradientUnits="userSpaceOnUse">
<stop stop-color="#99FF48"/>
<stop offset="1" stop-color="#D7FFB7"/>
</linearGradient>
</defs>
</svg>
