<svg xmlns="http://www.w3.org/2000/svg" width="56" height="38" viewBox="0 0 56 38" fill="none">
  <rect x="1.55469" y="35.7695" width="52.8769" height="1.5552" fill="black"/>
  <rect x="54.4336" y="10.8867" width="1.5552" height="24.8833" fill="black"/>
  <rect y="10.8867" width="1.5552" height="24.8833" fill="black"/>
  <rect x="18.6641" y="10.8867" width="1.5552" height="24.8833" fill="black"/>
  <rect x="1.55469" y="15.5508" width="31.1041" height="1.5552" fill="black"/>
  <rect x="32.6602" y="12.4424" width="1.5552" height="7.77602" fill="black"/>
  <rect x="41.9883" y="12.4424" width="1.5552" height="7.77602" fill="black"/>
  <rect x="34.2148" y="10.8867" width="7.77602" height="1.5552" fill="black"/>
  <rect x="37.3242" y="13.9971" width="1.5552" height="4.66561" fill="black"/>
  <rect x="35.7695" y="13.9971" width="4.66561" height="1.5552" fill="black"/>
  <rect x="34.2148" y="20.2188" width="7.77602" height="1.5552" fill="black"/>
  <rect x="41.9883" y="15.5508" width="13.9968" height="1.5552" fill="black"/>
  <rect x="52.875" y="7.77539" width="1.5552" height="3.11041" fill="black"/>
  <rect x="48.2109" y="7.77539" width="1.5552" height="3.11041" fill="black"/>
  <rect x="49.7656" y="10.8867" width="1.5552" height="3.11041" fill="black"/>
  <rect x="41.9883" y="12.4424" width="9.33122" height="1.5552" fill="black"/>
  <rect x="51.3203" y="4.66602" width="1.5552" height="3.11041" fill="black"/>
  <rect x="46.6562" y="4.66602" width="1.5552" height="3.11041" fill="black"/>
  <rect x="49.7656" y="3.11035" width="1.5552" height="1.5552" fill="black"/>
  <rect x="48.2109" y="1.55371" width="1.5552" height="1.5552" fill="black"/>
  <rect x="6.22266" y="1.55371" width="1.5552" height="1.5552" fill="black"/>
  <rect x="12.4414" y="1.55371" width="1.5552" height="1.5552" fill="black"/>
  <rect x="17.1094" y="1.55371" width="1.5552" height="1.5552" fill="black"/>
  <rect x="43.543" y="1.55371" width="1.5552" height="1.5552" fill="black"/>
  <rect x="4.66406" y="3.11035" width="1.5552" height="1.5552" fill="black"/>
  <rect x="13.9961" y="3.11035" width="1.5552" height="1.5552" fill="black"/>
  <rect x="18.6641" y="3.11035" width="27.9937" height="1.5552" fill="black"/>
  <rect x="3.10938" y="4.66602" width="1.5552" height="3.11041" fill="black"/>
  <rect x="1.55469" y="7.77539" width="1.5552" height="3.11041" fill="black"/>
  <rect x="17.1094" y="7.77539" width="1.5552" height="3.11041" fill="black"/>
  <rect x="13.9961" y="10.8867" width="1.5552" height="3.11041" fill="black"/>
  <rect x="3.10938" y="10.8867" width="1.5552" height="3.11041" fill="black"/>
  <rect x="3.10938" y="12.4424" width="12.4416" height="1.5552" fill="black"/>
  <rect x="4.66406" y="7.77539" width="9.33122" height="1.5552" fill="black"/>
  <rect x="4.66406" y="7.77539" width="1.5552" height="3.11041" fill="black"/>
  <rect x="6.22266" y="4.66602" width="1.5552" height="3.11041" fill="black"/>
  <rect x="7.77734" y="3.11035" width="3.11041" height="1.5552" fill="black"/>
  <rect x="12.4414" y="7.77539" width="1.5552" height="3.11041" fill="black"/>
  <rect x="10.8867" y="4.66602" width="1.5552" height="3.11041" fill="black"/>
  <rect x="21.7734" y="7.77539" width="1.5552" height="3.11041" fill="black"/>
  <rect x="23.3281" y="10.8867" width="1.5552" height="3.11041" fill="black"/>
  <rect x="24.8867" y="12.4424" width="7.77602" height="1.5552" fill="black"/>
  <rect x="23.3281" y="18.6621" width="9.33122" height="1.5552" fill="black"/>
  <rect x="23.3281" y="23.3281" width="27.9937" height="1.5552" fill="black"/>
  <rect x="23.3281" y="27.9932" width="27.9937" height="1.5552" fill="black"/>
  <rect x="23.3281" y="32.6592" width="27.9937" height="1.5552" fill="black"/>
  <rect x="23.3281" y="18.6621" width="1.5552" height="15.552" fill="black"/>
  <rect x="13.9961" y="18.6621" width="1.5552" height="15.552" fill="black"/>
  <rect x="4.66406" y="18.6621" width="1.5552" height="15.552" fill="black"/>
  <rect x="4.66406" y="18.6621" width="10.8864" height="1.5552" fill="black"/>
  <rect x="4.66406" y="32.6592" width="10.8864" height="1.5552" fill="black"/>
  <rect x="4.66406" y="27.9932" width="10.8864" height="1.5552" fill="black"/>
  <rect x="4.66406" y="23.3281" width="10.8864" height="1.5552" fill="black"/>
  <rect x="49.7656" y="18.6621" width="1.5552" height="15.552" fill="black"/>
  <rect x="43.543" y="18.6621" width="7.77602" height="1.5552" fill="black"/>
  <rect x="23.3281" y="7.77539" width="24.8833" height="1.5552" fill="black"/>
  <rect x="15.5508" y="4.66602" width="1.5552" height="3.11041" fill="black"/>
  <rect x="20.2188" y="4.66602" width="1.5552" height="3.11041" fill="black"/>
  <rect x="7.77734" width="40.4353" height="1.5552" fill="black"/>
  <rect x="7.77734" y="1.55371" width="4.66561" height="1.5552" fill="#FFE303"/>
  <rect x="6.22266" y="3.11035" width="1.5552" height="1.5552" fill="#FFE303"/>
  <rect x="4.66406" y="4.66602" width="1.5552" height="1.5552" fill="#FFE303"/>
  <rect x="3.10938" y="7.77539" width="1.5552" height="1.5552" fill="#FFE303"/>
  <rect x="1.55469" y="10.8867" width="1.5552" height="1.5552" fill="#FFE303"/>
  <rect x="17.1094" y="10.8867" width="1.5552" height="1.5552" fill="#FFE303"/>
  <rect x="15.5508" y="7.77539" width="1.5552" height="1.5552" fill="#FFE303"/>
  <rect x="13.9961" y="4.66602" width="1.5552" height="1.5552" fill="#FFE303"/>
  <rect x="12.4414" y="3.11035" width="1.5552" height="1.5552" fill="#FFE303"/>
  <rect x="4.66406" y="6.22168" width="1.5552" height="1.5552" fill="#F4A716"/>
  <rect x="3.10938" y="9.33105" width="1.5552" height="1.5552" fill="#F4A716"/>
  <rect x="1.55469" y="12.4424" width="1.5552" height="1.5552" fill="#F4A716"/>
  <rect x="15.5508" y="10.8867" width="1.5552" height="1.5552" fill="#F4A716"/>
  <rect x="15.5508" y="9.33105" width="1.5552" height="1.5552" fill="#F4A716"/>
  <rect x="13.9961" y="6.22168" width="1.5552" height="4.66561" fill="#F4A716"/>
  <rect x="10.8867" y="3.11035" width="1.5552" height="1.5552" fill="#F4A716"/>
  <rect x="7.77734" y="4.66602" width="1.5552" height="1.5552" fill="#5D2E1C"/>
  <rect x="9.33203" y="4.66602" width="1.5552" height="1.5552" fill="#5D2E1C"/>
  <rect x="9.33203" y="6.22168" width="1.5552" height="1.5552" fill="#834D29"/>
  <rect x="6.22266" y="21.7725" width="1.5552" height="1.5552" fill="#834D29"/>
  <rect x="12.4414" y="26.4395" width="1.5552" height="1.5552" fill="#834D29"/>
  <rect x="9.33203" y="21.7725" width="4.66561" height="1.5552" fill="#834D29"/>
  <rect x="6.22266" y="26.4395" width="4.66561" height="1.5552" fill="#834D29"/>
  <rect x="7.77734" y="31.1035" width="6.22081" height="1.5552" fill="#834D29"/>
  <rect x="6.22266" y="24.8838" width="7.77602" height="1.5552" fill="#834D29"/>
  <rect x="6.22266" y="29.5479" width="7.77602" height="1.5552" fill="#834D29"/>
  <rect x="6.22266" y="10.8867" width="7.77602" height="1.5552" fill="#834D29"/>
  <rect x="7.77734" y="9.33105" width="4.66561" height="1.5552" fill="#834D29"/>
  <rect x="7.77734" y="6.22168" width="1.5552" height="1.5552" fill="#5D2E1C"/>
  <rect x="6.22266" y="9.33105" width="1.5552" height="1.5552" fill="#5D2E1C"/>
  <rect x="4.66406" y="10.8867" width="1.5552" height="1.5552" fill="#5D2E1C"/>
  <rect x="6.22266" y="20.2188" width="7.77602" height="1.5552" fill="#5D2E1C"/>
  <rect x="7.77734" y="21.7725" width="1.5552" height="1.5552" fill="#5D2E1C"/>
  <rect x="10.8867" y="26.4395" width="1.5552" height="1.5552" fill="#5D2E1C"/>
  <rect x="6.22266" y="31.1035" width="1.5552" height="1.5552" fill="#5D2E1C"/>
  <rect x="12.4414" y="6.22168" width="1.5552" height="1.5552" fill="#F4A716"/>
  <rect x="12.4414" y="4.66602" width="1.5552" height="1.5552" fill="#F4A716"/>
  <rect x="15.5508" y="12.4424" width="3.11041" height="3.11041" fill="#F4A716"/>
  <rect x="1.55469" y="13.9971" width="17.1072" height="1.5552" fill="#F4A716"/>
  <rect x="13.9961" y="1.55371" width="3.11041" height="1.5552" fill="#FFE303"/>
  <rect x="17.1094" y="4.66602" width="3.11041" height="1.5552" fill="#FFE303"/>
  <rect x="48.2109" y="4.66602" width="3.11041" height="1.5552" fill="#FFE303"/>
  <rect x="49.7656" y="6.22168" width="1.5552" height="1.5552" fill="#FFE303"/>
  <rect x="51.3203" y="7.77539" width="1.5552" height="3.11041" fill="#FFE303"/>
  <rect x="52.875" y="10.8867" width="1.5552" height="1.5552" fill="#FFE303"/>
  <rect x="21.7734" y="10.8867" width="1.5552" height="1.5552" fill="#FFE303"/>
  <rect x="20.2188" y="7.77539" width="1.5552" height="1.5552" fill="#FFE303"/>
  <rect x="18.6641" y="6.22168" width="1.5552" height="1.5552" fill="#FFE303"/>
  <rect x="15.5508" y="3.11035" width="3.11041" height="1.5552" fill="white"/>
  <rect x="46.6562" y="3.11035" width="3.11041" height="1.5552" fill="white"/>
  <rect x="45.0977" y="1.55371" width="3.11041" height="1.5552" fill="#FFE303"/>
  <rect x="15.5508" y="18.6621" width="3.11041" height="15.552" fill="#F0A815"/>
  <rect x="1.55469" y="18.6621" width="3.11041" height="15.552" fill="#F0A815"/>
  <rect x="1.55469" y="17.1074" width="17.1072" height="1.5552" fill="#D68917"/>
  <rect x="1.55469" y="34.2158" width="17.1072" height="1.5552" fill="#D68917"/>
  <rect x="20.2188" y="34.2158" width="34.2145" height="1.5552" fill="#EFA91E"/>
  <rect x="20.2188" y="23.3281" width="3.11041" height="10.8864" fill="#FFCA0C"/>
  <rect x="51.3203" y="23.3281" width="3.11041" height="10.8864" fill="#FFCA0A"/>
  <rect width="3.11041" height="4.66561" transform="matrix(1 0 0 -1 20.2188 21.7725)" fill="#F0A815"/>
  <rect width="12.4416" height="1.5552" transform="matrix(1 0 0 -1 20.2188 18.6621)" fill="#F0A815"/>
  <rect width="10.8864" height="1.5552" transform="matrix(1 0 0 -1 43.543 18.6621)" fill="#F0A815"/>
  <rect width="3.11041" height="3.11041" transform="matrix(1 0 0 -1 51.3203 21.7725)" fill="#FFCB0A"/>
  <rect width="3.11041" height="1.5552" transform="matrix(1 0 0 -1 20.2188 23.3281)" fill="#FEE610"/>
  <rect width="7.77602" height="1.5552" transform="matrix(1 0 0 -1 24.8867 21.7725)" fill="#5D2E1C"/>
  <rect width="9.33122" height="1.5552" transform="matrix(1 0 0 -1 24.8867 23.3281)" fill="#804E2A"/>
  <rect width="7.77602" height="1.5552" transform="matrix(1 0 0 -1 34.2148 23.3281)" fill="#5E2D1F"/>
  <rect width="6.22081" height="1.5552" transform="matrix(1 0 0 -1 41.9883 23.3281)" fill="#7F4D2A"/>
  <rect width="1.5552" height="1.5552" transform="matrix(1 0 0 -1 32.6602 21.7725)" fill="#451F16"/>
  <rect width="1.5552" height="1.5552" transform="matrix(1 0 0 -1 41.9883 21.7725)" fill="#451F16"/>
  <rect width="6.22081" height="1.5552" transform="matrix(1 0 0 -1 43.543 21.7725)" fill="#5D2E1C"/>
  <rect width="1.5552" height="3.11041" transform="matrix(1 0 0 -1 48.2109 23.3281)" fill="#5D2E1C"/>
  <rect width="1.5552" height="1.5552" transform="matrix(1 0 0 -1 29.5469 26.4395)" fill="#5D2E1C"/>
  <rect width="1.5552" height="1.5552" transform="matrix(1 0 0 -1 43.543 10.8867)" fill="#5D2E1C"/>
  <rect width="1.5552" height="1.5552" transform="matrix(1 0 0 -1 26.4414 7.77539)" fill="#5D2E1C"/>
  <rect width="1.5552" height="1.5552" transform="matrix(1 0 0 -1 38.8789 6.22168)" fill="#5D2E1C"/>
  <rect width="1.5552" height="1.5552" transform="matrix(1 0 0 -1 37.3242 27.9932)" fill="#5D2E1C"/>
  <rect width="1.5552" height="1.5552" transform="matrix(1 0 0 -1 45.0977 31.1035)" fill="#5D2E1C"/>
  <rect width="1.5552" height="1.5552" transform="matrix(1 0 0 -1 46.6562 31.1035)" fill="#5D2E1C"/>
  <rect width="1.5552" height="1.5552" transform="matrix(1 0 0 -1 24.8867 32.6592)" fill="#5D2E1C"/>
  <rect width="1.5552" height="3.11041" transform="matrix(1 0 0 -1 48.2109 32.6592)" fill="#5D2E1C"/>
  <rect width="1.5552" height="3.11041" transform="matrix(1 0 0 -1 48.2109 27.9932)" fill="#5D2E1C"/>
  <rect width="3.11041" height="1.5552" transform="matrix(1 0 0 -1 51.3203 23.3281)" fill="#FFE301"/>
  <rect x="24.8867" y="24.8838" width="4.66561" height="1.5552" fill="#824C28"/>
  <rect x="31.1016" y="24.8838" width="17.1072" height="1.5552" fill="#824C28"/>
  <rect x="24.8867" y="26.4395" width="12.4416" height="1.5552" fill="#824C28"/>
  <rect x="38.8789" y="26.4395" width="9.33122" height="1.5552" fill="#824C28"/>
  <rect width="20.2176" height="1.5552" transform="matrix(1 0 0 -1 24.8867 31.1035)" fill="#824C28"/>
  <rect width="21.7729" height="1.5552" transform="matrix(1 0 0 -1 26.4414 32.6592)" fill="#824C28"/>
  <rect x="20.2188" y="13.9971" width="12.4416" height="1.5552" fill="#FCC80F"/>
  <rect x="20.2188" y="12.4424" width="3.11041" height="1.5552" fill="#FCC80F"/>
  <rect x="20.2188" y="10.8867" width="1.5552" height="1.5552" fill="#FCC80F"/>
  <rect x="18.6641" y="9.33105" width="3.11041" height="1.5552" fill="#FCC80F"/>
  <rect x="18.6641" y="7.77539" width="1.5552" height="1.5552" fill="#FCC80F"/>
  <rect x="17.1094" y="6.22168" width="1.5552" height="1.5552" fill="#FCC80F"/>
  <rect x="43.543" y="13.9971" width="10.8864" height="1.5552" fill="#FCC80F"/>
  <rect x="52.875" y="12.4424" width="1.5552" height="1.5552" fill="#FCC80F"/>
  <rect x="51.3203" y="10.8867" width="1.5552" height="3.11041" fill="#FCC80F"/>
  <rect x="49.7656" y="7.77539" width="1.5552" height="3.11041" fill="#FCC80F"/>
  <rect x="48.2109" y="6.22168" width="1.5552" height="1.5552" fill="#FCC80F"/>
  <rect x="23.3281" y="9.33105" width="20.2176" height="1.5552" fill="#834D29"/>
  <rect x="24.8867" y="10.8867" width="9.33122" height="1.5552" fill="#834D29"/>
  <rect x="45.0977" y="9.33105" width="3.11041" height="1.5552" fill="#834D29"/>
  <rect x="41.9883" y="10.8867" width="7.77602" height="1.5552" fill="#834D29"/>
  <rect x="21.7734" y="4.66602" width="17.1072" height="1.5552" fill="#834D29"/>
  <rect x="21.7734" y="6.22168" width="4.66561" height="1.5552" fill="#834D29"/>
  <rect x="27.9961" y="6.22168" width="18.6624" height="1.5552" fill="#834D29"/>
  <rect x="40.4375" y="4.66602" width="6.22081" height="1.5552" fill="#834D29"/>
  <rect x="18.6641" y="1.55371" width="24.8833" height="1.5552" fill="#834D29"/>
  <rect x="34.2148" y="12.4424" width="7.77602" height="1.5552" fill="#FEE401"/>
  <rect x="34.2148" y="18.6621" width="7.77602" height="1.5552" fill="#F1A917"/>
  <rect x="34.2148" y="13.9971" width="1.5552" height="4.66561" fill="#FFCB07"/>
  <rect x="35.7695" y="15.5508" width="1.5552" height="1.5552" fill="#F0A513"/>
  <rect x="35.7695" y="17.1074" width="1.5552" height="1.5552" fill="#FFCB07"/>
  <rect x="38.8789" y="15.5508" width="1.5552" height="1.5552" fill="#F0A513"/>
  <rect x="38.8789" y="17.1074" width="1.5552" height="1.5552" fill="#FFCB07"/>
  <rect x="40.4375" y="13.9971" width="1.5552" height="4.66561" fill="#FFCB07"/>
</svg>